<svg xmlns="http://www.w3.org/2000/svg" xmlns:xlink="http://www.w3.org/1999/xlink" version="1.1" width="3179" height="2245" viewBox="0 0 3179 2245" xml:space="preserve">
<desc>Created with Fabric.js 3.6.3</desc>
<defs>
</defs>
<g transform="matrix(1 0 0 1 1589.5 1257.210125)" style="" id="uid3dswhxdys">
		
<g xml:space="preserve" style="stroke: rgb(35,14,140); stroke-width: 0; stroke-dasharray:none; stroke-linecap: butt; stroke-dashoffset: 0; stroke-linejoin: miter; stroke-miterlimit: 4; fill: rgb(8,124,24); fill-rule: nonzero; opacity: 1; white-space: pre;"><path style="fill: rgb(126,211,33);" d="M-1181.59-8.57L-1181.59-8.57Q-1181.59 8.77-1187.12 24.02Q-1192.65 39.27-1202.78 50.57Q-1212.91 61.86-1227.05 68.38Q-1241.20 74.90-1258.43 74.90L-1258.43 74.90L-1342.60 74.90L-1342.60 51.03L-1258.43 51.03Q-1246.08 51.03-1236.25 46.38Q-1226.41 41.72-1219.60 33.63Q-1212.79 25.54-1209.12 14.65Q-1205.45 3.77-1205.45-8.57L-1205.45-8.57Q-1205.45-20.91-1209.12-31.74Q-1212.79-42.57-1219.60-50.66Q-1226.41-58.75-1236.25-63.46Q-1246.08-68.18-1258.43-68.18L-1258.43-68.18L-1354.47-68.18L-1354.47 74.90L-1378.34 74.90L-1378.34-92.05L-1258.43-92.05Q-1241.20-92.05-1227.05-85.47Q-1212.91-78.89-1202.78-67.54Q-1192.65-56.19-1187.12-41.00Q-1181.59-25.80-1181.59-8.57Z"/><path style="fill: rgb(126,211,33);" d="M-1004.63-14.51L-1004.63 74.90L-1123.85 74.90Q-1132.58 74.90-1140.14 71.64Q-1147.71 68.38-1153.42 62.73Q-1159.12 57.09-1162.38 49.46Q-1165.64 41.84-1165.64 33.22L-1165.64 33.22Q-1165.64 24.49-1162.38 16.92Q-1159.12 9.36-1153.42 3.65Q-1147.71-2.05-1140.14-5.31Q-1132.58-8.57-1123.85-8.57L-1123.85-8.57L-1040.49-8.57L-1040.49 15.29L-1123.85 15.29Q-1127.57 15.29-1130.83 16.75Q-1134.09 18.20-1136.54 20.65Q-1138.98 23.09-1140.38 26.35Q-1141.77 29.61-1141.77 33.22L-1141.77 33.22Q-1141.77 36.95-1140.38 40.15Q-1138.98 43.35-1136.54 45.79Q-1134.09 48.24-1130.83 49.64Q-1127.57 51.03-1123.85 51.03L-1123.85 51.03L-1028.50 51.03L-1028.50-14.51Q-1028.50-18.12-1029.95-21.38Q-1031.41-24.64-1033.85-27.08Q-1036.30-29.53-1039.56-30.98Q-1042.82-32.44-1046.43-32.44L-1046.43-32.44L-1141.77-32.44L-1141.77-56.19L-1046.43-56.19Q-1037.70-56.19-1030.13-52.93Q-1022.56-49.67-1016.86-44.02Q-1011.15-38.38-1007.89-30.81Q-1004.63-23.24-1004.63-14.51L-1004.63-14.51Z"/><path style="fill: rgb(126,211,33);" d="M-941.53-85.99L-941.53-85.99Q-941.53-82.27-942.93-79.06Q-944.33-75.86-946.77-73.42Q-949.22-70.97-952.48-69.58Q-955.74-68.18-959.35-68.18L-959.35-68.18Q-963.07-68.18-966.33-69.58Q-969.59-70.97-972.04-73.42Q-974.48-75.86-975.88-79.06Q-977.27-82.27-977.27-85.99L-977.27-85.99Q-977.27-89.60-975.88-92.86Q-974.48-96.12-972.04-98.56Q-969.59-101.01-966.33-102.46Q-963.07-103.92-959.35-103.92L-959.35-103.92Q-955.74-103.92-952.48-102.46Q-949.22-101.01-946.77-98.56Q-944.33-96.12-942.93-92.86Q-941.53-89.60-941.53-85.99ZM-947.47-56.19L-947.47 74.90L-971.34 74.90L-971.34-56.19L-947.47-56.19Z"/><path style="fill: rgb(126,211,33);" d="M-776.22 33.22L-776.22 33.22Q-776.22 41.84-779.48 49.46Q-782.74 57.09-788.39 62.73Q-794.03 68.38-801.66 71.64Q-809.28 74.90-817.90 74.90L-817.90 74.90L-919.30 74.90L-919.30 51.03L-817.90 51.03Q-814.29 51.03-811.03 49.64Q-807.77 48.24-805.32 45.79Q-802.88 43.35-801.48 40.15Q-800.09 36.95-800.09 33.22L-800.09 33.22Q-800.09 29.61-801.48 26.35Q-802.88 23.09-805.32 20.65Q-807.77 18.20-811.03 16.75Q-814.29 15.29-817.90 15.29L-817.90 15.29L-883.56 15.29Q-891.01 15.29-897.53 12.50Q-904.05 9.70-908.88 4.87Q-913.71 0.04-916.50-6.48Q-919.30-13.00-919.30-20.45L-919.30-20.45Q-919.30-27.90-916.50-34.42Q-913.71-40.94-908.88-45.77Q-904.05-50.60-897.53-53.39Q-891.01-56.19-883.56-56.19L-883.56-56.19L-788.09-56.19L-788.09-32.44L-883.56-32.44Q-888.56-32.44-892.00-29.00Q-895.43-25.57-895.43-20.45L-895.43-20.45Q-895.43-15.44-892.00-12.01Q-888.56-8.57-883.56-8.57L-883.56-8.57L-817.90-8.57Q-809.28-8.57-801.66-5.31Q-794.03-2.05-788.39 3.65Q-782.74 9.36-779.48 16.92Q-776.22 24.49-776.22 33.22Z"/><path style="fill: rgb(126,211,33);" d="M-597.17 9.36L-597.17 74.90L-621.03 74.90L-621.03 9.36Q-621.03 0.74-624.29-6.83Q-627.55-14.39-633.14-20.04Q-638.73-25.69-646.24-29.00Q-653.75-32.32-662.36-32.44L-662.36-32.44L-727.91-32.44L-727.91 74.90L-751.77 74.90L-751.77-103.92L-727.91-103.92L-727.91-56.19L-662.36-56.19Q-648.86-56.19-636.98-51.01Q-625.11-45.83-616.26-36.92Q-607.41-28.02-602.29-16.08Q-597.17-4.15-597.17 9.36L-597.17 9.36Z"/><path style="fill: rgb(126,211,33);" d="M-535.23-85.99L-535.23-85.99Q-535.23-82.27-536.63-79.06Q-538.03-75.86-540.47-73.42Q-542.92-70.97-546.18-69.58Q-549.44-68.18-553.05-68.18L-553.05-68.18Q-556.77-68.18-560.03-69.58Q-563.29-70.97-565.74-73.42Q-568.18-75.86-569.58-79.06Q-570.97-82.27-570.97-85.99L-570.97-85.99Q-570.97-89.60-569.58-92.86Q-568.18-96.12-565.74-98.56Q-563.29-101.01-560.03-102.46Q-556.77-103.92-553.05-103.92L-553.05-103.92Q-549.44-103.92-546.18-102.46Q-542.92-101.01-540.47-98.56Q-538.03-96.12-536.63-92.86Q-535.23-89.60-535.23-85.99ZM-541.17-56.19L-541.17 74.90L-565.04 74.90L-565.04-56.19L-541.17-56.19Z"/><path style="fill: rgb(126,211,33);" d="M-437.91 4.58L-351.53 74.90L-385.64 74.90L-455.25 18.90L-482.96 41.49L-482.96 74.90L-506.83 74.90L-506.83-103.92L-482.96-103.92L-482.96 16.22L-396.11-56.19L-363.75-56.19L-437.91 4.58Z"/><path style="fill: rgb(126,211,33);" d="M-186.44-56.19L-186.44 80.84Q-186.44 89.57-189.70 97.13Q-192.96 104.70-198.61 110.41Q-204.26 116.11-211.88 119.37Q-219.51 122.63-228.12 122.63L-228.12 122.63L-323.47 122.63L-323.47 98.76L-228.12 98.76Q-224.51 98.76-221.25 97.37Q-217.99 95.97-215.55 93.53Q-213.10 91.08-211.71 87.82Q-210.31 84.56-210.31 80.84L-210.31 80.84L-210.31 74.90L-275.85 74.90Q-289.36 74.90-301.23 69.72Q-313.11 64.54-321.90 55.63Q-330.69 46.73-335.81 34.79Q-340.93 22.86-340.93 9.36L-340.93 9.36L-340.93-56.19L-317.07-56.19L-317.07 9.36Q-317.07 17.97-313.86 25.48Q-310.66 32.99-305.07 38.63Q-299.49 44.28-291.98 47.60Q-284.47 50.92-275.85 51.03L-275.85 51.03L-210.31 51.03L-210.31-56.19L-186.44-56.19Z"/><path style="fill: rgb(126,211,33);" d=""/><path style="fill: rgb(126,211,33);" d="M139.53-8.57L139.53-8.57Q139.53 8.77 134.06 24.02Q128.58 39.27 118.51 50.57Q108.44 61.86 94.36 68.38Q80.27 74.90 63.04 74.90L63.04 74.90L7.51 74.90Q-9.84 74.90-24.04 68.38Q-38.24 61.86-48.31 50.57Q-58.38 39.27-63.86 24.02Q-69.33 8.77-69.33-8.57L-69.33-8.57Q-69.33-25.80-63.86-41.00Q-58.38-56.19-48.31-67.54Q-38.24-78.89-24.04-85.47Q-9.84-92.05 7.51-92.05L7.51-92.05L63.04-92.05Q80.27-92.05 94.36-85.47Q108.44-78.89 118.51-67.54Q128.58-56.19 134.06-41.00Q139.53-25.80 139.53-8.57ZM115.66-8.57L115.66-8.57Q115.66-20.91 112.05-31.74Q108.44-42.57 101.63-50.66Q94.82-58.75 85.10-63.46Q75.38-68.18 63.04-68.18L63.04-68.18L7.51-68.18Q-4.83-68.18-14.67-63.46Q-24.51-58.75-31.32-50.66Q-38.13-42.57-41.79-31.74Q-45.46-20.91-45.46-8.57L-45.46-8.57Q-45.46 3.77-41.79 14.65Q-38.13 25.54-31.32 33.63Q-24.51 41.72-14.67 46.38Q-4.83 51.03 7.51 51.03L7.51 51.03L63.04 51.03Q75.38 51.03 85.10 46.38Q94.82 41.72 101.63 33.63Q108.44 25.54 112.05 14.65Q115.66 3.77 115.66-8.57Z"/><path style="fill: rgb(126,211,33);" d="M190.98-32.44L190.98 74.90L167.12 74.90L167.12-56.19L256.53-56.19Q270.03-56.19 281.91-51.01Q293.78-45.83 302.63-36.92Q311.48-28.02 316.60-16.08Q321.72-4.15 321.72 9.36L321.72 9.36L321.72 74.90L297.86 74.90L297.86 9.36Q297.86 0.74 294.60-6.83Q291.34-14.39 285.75-20.04Q280.16-25.69 272.65-29.00Q265.14-32.32 256.53-32.44L256.53-32.44L190.98-32.44Z"/><path style="fill: rgb(126,211,33);" d=""/><path style="fill: rgb(126,211,33);" d="M620.92-20.45L620.92 74.90L513.46 74.90Q496.12 74.90 481.91 68.38Q467.71 61.86 457.64 50.57Q447.57 39.27 442.10 24.02Q436.63 8.77 436.63-8.57L436.63-8.57Q436.63-25.80 442.10-41.00Q447.57-56.19 457.64-67.54Q467.71-78.89 481.91-85.47Q496.12-92.05 513.46-92.05L513.46-92.05L620.92-92.05L620.92-68.18L513.46-68.18Q501.12-68.18 491.29-63.46Q481.45-58.75 474.64-50.66Q467.83-42.57 464.16-31.74Q460.49-20.91 460.49-8.57L460.49-8.57Q460.49 3.77 464.16 14.65Q467.83 25.54 474.64 33.63Q481.45 41.72 491.29 46.38Q501.12 51.03 513.46 51.03L513.46 51.03L597.05 51.03L597.05 3.42L496.00 3.42L496.00-20.45L620.92-20.45Z"/><path style="fill: rgb(126,211,33);" d="M683.32-85.99L683.32-85.99Q683.32-82.27 681.92-79.06Q680.52-75.86 678.08-73.42Q675.63-70.97 672.37-69.58Q669.12-68.18 665.51-68.18L665.51-68.18Q661.78-68.18 658.52-69.58Q655.26-70.97 652.82-73.42Q650.37-75.86 648.97-79.06Q647.58-82.27 647.58-85.99L647.58-85.99Q647.58-89.60 648.97-92.86Q650.37-96.12 652.82-98.56Q655.26-101.01 658.52-102.46Q661.78-103.92 665.51-103.92L665.51-103.92Q669.12-103.92 672.37-102.46Q675.63-101.01 678.08-98.56Q680.52-96.12 681.92-92.86Q683.32-89.60 683.32-85.99ZM677.38-56.19L677.38 74.90L653.52 74.90L653.52-56.19L677.38-56.19Z"/><path style="fill: rgb(126,211,33);" d="M757.83-32.44L757.83 74.90L733.96 74.90L733.96-32.44L698.22-32.44L698.22-56.19L733.96-56.19L733.96-103.92L757.83-103.92L757.83-56.19L841.30-56.19L841.30-32.44L757.83-32.44Z"/><path style="fill: rgb(126,211,33);" d="M1014.65 9.36L1014.65 74.90L990.78 74.90L990.78 9.36Q990.78 0.74 987.52-6.83Q984.26-14.39 978.67-20.04Q973.08-25.69 965.57-29.00Q958.07-32.32 949.45-32.44L949.45-32.44L883.91-32.44L883.91 74.90L860.04 74.90L860.04-103.92L883.91-103.92L883.91-56.19L949.45-56.19Q962.96-56.19 974.83-51.01Q986.70-45.83 995.55-36.92Q1004.40-28.02 1009.52-16.08Q1014.65-4.15 1014.65 9.36L1014.65 9.36Z"/><path style="fill: rgb(126,211,33);" d="M1199.17-56.19L1199.17 74.90L1109.76 74.90Q1096.25 74.90 1084.38 69.72Q1072.51 64.54 1063.72 55.63Q1054.93 46.73 1049.80 34.79Q1044.68 22.86 1044.68 9.36L1044.68 9.36L1044.68-56.19L1068.55-56.19L1068.55 9.36Q1068.55 17.97 1071.75 25.48Q1074.95 32.99 1080.54 38.63Q1086.13 44.28 1093.63 47.60Q1101.14 50.92 1109.76 51.03L1109.76 51.03L1175.30 51.03L1175.30-56.19L1199.17-56.19Z"/><path style="fill: rgb(126,211,33);" d="M1388.12 9.36L1388.12 9.36Q1388.12 22.86 1382.99 34.73Q1377.87 46.61 1369.02 55.52Q1360.18 64.42 1348.30 69.60Q1336.43 74.78 1322.92 74.90L1322.92 74.90L1233.51 74.90L1233.51-103.92L1257.38-103.92L1257.38 51.03L1322.92 51.03Q1331.54 51.03 1339.05 47.72Q1346.55 44.40 1352.14 38.75Q1357.73 33.10 1360.99 25.54Q1364.25 17.97 1364.25 9.36L1364.25 9.36Q1364.25 0.74 1360.99-6.83Q1357.73-14.39 1352.14-20.04Q1346.55-25.69 1339.05-29.00Q1331.54-32.32 1322.92-32.44L1322.92-32.44L1269.37-32.44L1269.37-56.19L1322.92-56.19Q1336.43-56.19 1348.30-51.01Q1360.18-45.83 1369.02-36.92Q1377.87-28.02 1382.99-16.08Q1388.12-4.15 1388.12 9.36Z"/></g></g>
<g transform="matrix(1 0 0 1 880.2421921949642 1367.3797914069844)" id="uidzg1ap1jtv">
<path style="stroke: rgb(88,114,1); stroke-width: 0; stroke-dasharray:none; stroke-linecap: butt; stroke-dashoffset: 0; stroke-linejoin: miter; stroke-miterlimit: 4; fill: rgb(0,0,0); fill-opacity: 0.54; fill-rule: nonzero; opacity: 1;" transform=" translate(-148.49970500679757, -148.50000000000006)" d="M 310.83895 263.0239 c 4.32564 4.32564 4.32564 11.33766 0.00112 15.66327 l -32.16178 32.16624 c -2.07638 2.0775 -4.89324 3.24504 -7.83164 3.24504 c -2.93613 0 -5.75524 -1.16752 -7.83164 -3.24504 l -65.90595 -65.91266 l -27.15816 47.02215 c -2.12099 3.67553 -6.15559 5.81431 -10.38864 5.50657 c -4.23309 -0.30555 -7.91861 -3.00309 -9.49097 -6.94399 l -83.62886 -209.70561 c -1.64036 -4.11041 -0.67354 -8.80292 2.45664 -11.93425 c 3.13019 -3.12913 7.82383 -4.0959 11.93425 -2.45442 l 209.68111 83.64229 c 3.94087 1.57123 6.63732 5.25679 6.94289 9.48983 c 0.30555 4.23198 -1.83213 8.26542 -5.50657 10.38752 l -47.02215 27.16038 z M 56.14068 40.46737 c 4.32564 4.32564 4.32564 11.33766 0 15.66327 c -2.16224 2.16224 -4.99698 3.24395 -7.83052 3.24395 c -2.83586 0 -5.66938 -1.08171 -7.83164 -3.24395 l -24.61007 -24.61007 c -4.3245 -4.32564 -4.3245 -11.33877 0 -15.66439 c 4.32786 -4.3234 11.33877 -4.32227 15.66439 0 z M 39.87302 92.42512 c 0 6.11655 -4.95904 11.07559 -11.07668 11.07668 h -34.80357 c -6.11767 0 -11.07668 -4.96019 -11.07668 -11.07668 c 0 -6.11655 4.96019 -11.07559 11.07668 -11.07559 h 34.80357 c 6.11767 0 11.07668 4.96019 11.07668 11.07559 z M 35.38345 126.60868 c 4.32786 -4.3234 11.33766 -4.32227 15.66217 0 c 4.32564 4.32564 4.32564 11.33877 0 15.66439 l -24.61227 24.61114 c -2.16224 2.16224 -4.99805 3.24395 -7.83164 3.24395 c -2.83356 0 -5.66824 -1.08171 -7.83164 -3.24395 c -4.3245 -4.3245 -4.3245 -11.33766 0 -15.66327 z M 92.43296 39.86075 c -6.11655 0 -11.07559 -4.95904 -11.07559 -11.07559 v -34.80802 c 0 -6.11767 4.96019 -11.07559 11.07559 -11.07559 c 6.11767 0 11.07668 4.95904 11.07668 11.07559 v 34.80688 c 0 6.11767 -4.96019 11.07668 -11.07668 11.07668 z M 134.44256 54.27727 c -2.83468 0 -5.66824 -1.08171 -7.83164 -3.24395 c -4.32564 -4.3245 -4.32564 -11.33766 0 -15.66327 l 24.60894 -24.61114 c 4.3245 -4.3234 11.33766 -4.3234 15.66327 0 c 4.32564 4.32564 4.32564 11.33877 0 15.66439 l -24.60894 24.61007 c -2.16224 2.16224 -4.99584 3.24395 -7.83164 3.24395 z" stroke-linecap="round"/>
</g>
</svg>